<svg width="227" height="78" viewBox="0 0 227 78" fill="none" xmlns="http://www.w3.org/2000/svg">
<path d="M137.085 31.2457C134.008 47.1622 119.878 43.7702 117.5 41.2914C117.5 65.1662 143.521 66.3403 147.158 67.1231C148.417 67.394 149.396 69.341 148.417 72.6025C138.624 76.2555 154.712 79.9085 156.531 70.6456C158.217 69.7917 185.78 67.5237 184.699 73.0677C176.052 77.3517 191.995 79.3677 191.995 68.4277L196.262 71.037L197.939 65.7598L203.117 70.6456L205.355 66.4707L210.951 68.4277V64.2529H217.526V58.9558L223.61 57.1918L218.925 52.4038L225.5 50.1358L220.044 45.8575L225.5 41.2914L218.925 37.247L222.422 34.7682L217.526 33.4635L222.422 29.5496L212.909 27.9841L218.925 24.9834L209.272 23.5483L214.168 19.8953H205.355L210.951 14.5463H203.117L207.313 11.5457H193.883L196.262 6.71853L184.231 8.28409L188.288 3.06556L175.977 6.71853V1.5L169.122 8.28409L168.003 3.06556L162.127 9.19734V4.63112L154.712 11.5457V8.28409L149.396 15.7205L148.417 11.5457L141.842 21.7218L139.744 18.3298C139.883 17.3296 139.548 18.5125 137.085 31.2457Z" stroke="#817F0D" stroke-width="3" stroke-linejoin="round"/>
<path d="M89.9145 31.2457C92.9922 47.1622 107.122 43.7702 109.5 41.2914C109.5 65.1662 83.4793 66.3403 79.842 67.1231C78.5829 67.394 77.6036 69.341 78.5829 72.6025C88.3756 76.2555 72.2876 79.9085 70.4689 70.6456C68.7829 69.7917 41.2205 67.5237 42.3014 73.0677C50.9484 77.3517 35.0054 79.3677 35.0054 68.4277L30.7383 71.037L29.0606 65.7598L23.8834 70.6456L21.6451 66.4707L16.0492 68.4277V64.2529H9.47409V58.9558L3.38975 57.1918L8.07513 52.4038L1.49999 50.1358L6.95596 45.8575L1.49999 41.2914L8.07513 37.247L4.57771 34.7682L9.47409 33.4635L4.57771 29.5496L14.0907 27.9841L8.07513 24.9834L17.728 23.5483L12.8316 19.8953H21.6451L16.0492 14.5463H23.8834L19.6865 11.5457H33.1166L30.7383 6.71853L42.7694 8.28409L38.7124 3.06556L51.0233 6.71853V1.5L57.8782 8.28409L58.9974 3.06556L64.8731 9.19734V4.63112L72.2876 11.5457V8.28409L77.6036 15.7205L78.5829 11.5457L85.158 21.7218L87.2565 18.3298C87.1166 17.3296 87.4523 18.5125 89.9145 31.2457Z" stroke="#817F0D" stroke-width="3" stroke-linejoin="round"/>
<path d="M124.907 17.9843C122.907 15.1843 116.407 19.151 113.907 21.4843C111.574 19.1509 104.666 13.9561 101.907 17.9843C99.5098 21.4843 108.241 28.8176 113.907 32.4843C119.407 29.4843 126.907 20.7843 124.907 17.9843Z" fill="#DB5228"/>
</svg>
