<svg width="205" height="149" viewBox="0 0 205 149" fill="none" xmlns="http://www.w3.org/2000/svg">
<path d="M40.8991 59.0194C35.2043 90.6 9.05975 83.8697 4.65918 78.9514C4.65918 126.322 52.8066 128.652 59.5368 130.205C61.8666 130.743 63.6786 134.606 61.8666 141.077C43.7466 148.325 73.5151 155.573 76.8802 137.194C80 135.5 131 131 129 142C113 150.5 142.5 154.5 142.5 132.794L150.396 137.971L153.5 127.5L163.08 137.194L167.221 128.911L177.576 132.794V124.51H189.742V114L201 110.5L192.33 101L204.497 96.5L194.401 88.0113L204.497 78.9514L192.33 70.9268L198.802 66.0085L189.742 63.4199L198.802 55.6542L181.2 52.548L192.33 46.5942L174.469 43.7468L183.529 36.4988H167.221L177.576 25.8857H163.08L170.845 19.932H145.995L150.396 10.3543L128.134 13.4606L135.641 3.10628L112.861 10.3543V0L100.177 13.4606L98.1065 3.10628L87.2345 15.2726V6.21257L73.5151 19.932V13.4606L63.6786 28.2154L61.8666 19.932L49.7003 40.1228L45.8174 33.3926C46.0763 31.408 45.455 33.755 40.8991 59.0194Z" fill="#F9F8EC"/>
<ellipse cx="4.65942" cy="79.7279" rx="4.65942" ry="4.91828" fill="#F9F8EC"/>
</svg>
