<svg width="409" height="91" viewBox="0 0 409 91" fill="none" xmlns="http://www.w3.org/2000/svg">
<path d="M403.963 20.6388H409V43.4068H403.963V32C403.963 27.8479 400.197 24.4259 395.477 24.4259C390.803 24.4259 386.992 27.8479 386.992 32C386.992 36.1977 389.533 39.6198 392.664 39.6198C395.795 39.6198 398.336 36.7452 398.336 33.2776H403.328C403.328 39.2091 398.563 44 392.664 44C386.765 44 382 38.6616 382 32C382 25.384 388.035 20 395.477 20C397.61 20 399.652 20.4563 401.422 21.2319C402.602 21.7338 403.509 22.6464 404.054 23.8327L404.916 25.8403L405.551 25.5665L404.417 23.0114C404.145 22.3726 403.963 21.6426 403.963 20.9582V20.6388Z" fill="#F9F8EC"/>
<path d="M356 21H380V44H374.935V26.485C374.935 25.7936 375.118 25.1483 375.483 24.5952L376.487 23.1202L375.939 22.7054L375.027 24.0882C374.707 24.5491 374.205 24.8257 373.612 24.8257H361.019V44H356V21Z" fill="#F9F8EC"/>
<path d="M340.477 20C347.965 20 354 25.384 354 32C354 38.6616 347.965 44 340.477 44C333.035 44 327 38.6616 327 32C327 25.384 333.035 20 340.477 20ZM340.477 39.6198C345.197 39.6198 348.963 36.1977 348.963 32C348.963 27.8023 345.197 24.4259 340.477 24.4259C335.803 24.4259 331.992 27.8023 331.992 32C331.992 36.1977 335.803 39.6198 340.477 39.6198Z" fill="#F9F8EC"/>
<path d="M312.477 20C319.965 20 326 25.3873 326 32.0074C326 38.673 321.235 44.0147 315.336 44.0147C309.437 44.0147 304.627 39.2209 304.627 33.2857H309.664C309.664 36.7555 312.205 39.6318 315.336 39.6318C318.422 39.6318 320.963 36.2077 320.963 32.0074C320.963 27.8527 317.197 24.4286 312.477 24.4286C307.803 24.4286 303.992 27.8527 303.992 32.0074V51H299V20.6392H303.992V20.9588C303.992 21.6436 303.855 22.3741 303.583 23.0133L302.449 25.57L303.039 25.8439L303.946 23.8351C304.445 22.648 305.398 21.7349 306.533 21.2327C308.348 20.4566 310.345 20 312.477 20Z" fill="#F9F8EC"/>
<path d="M274 21H298V24.8257H288.51V44H283.445V24.8257H274V21Z" fill="#F9F8EC"/>
<path d="M243.541 21H257V44H251.884V36.3795H243.91L240.499 44H234.922L237.733 37.8112C237.964 37.2108 238.425 36.749 239.024 36.4257L239.854 36.01L239.577 35.4096C238.517 35.9177 237.503 35.4558 236.535 34.6707C234.876 33.3775 234 30.6988 234 28.5743C234 23.9558 237.872 21 243.541 21ZM251.884 32.5V24.8333H243.541C240.545 24.8333 239.07 26.8655 239.07 28.5743C239.07 30.2369 240.545 32.5 243.541 32.5H251.884Z" fill="#F9F8EC"/>
<path d="M226.963 20.6388H232V43.4068H226.963V32C226.963 27.8479 223.197 24.4259 218.477 24.4259C213.803 24.4259 209.992 27.8479 209.992 32C209.992 36.1977 212.533 39.6198 215.664 39.6198C218.795 39.6198 221.336 36.7452 221.336 33.2776H226.328C226.328 39.2091 221.563 44 215.664 44C209.765 44 205 38.6616 205 32C205 25.384 211.035 20 218.477 20C220.61 20 222.652 20.4563 224.422 21.2319C225.602 21.7338 226.509 22.6464 227.054 23.8327L227.916 25.8403L228.551 25.5665L227.417 23.0114C227.145 22.3726 226.963 21.6426 226.963 20.9582V20.6388Z" fill="#F9F8EC"/>
<path d="M197.903 32.1543L206 44H200.706L196.746 38.1463C196.123 37.3166 195.811 36.2565 195.811 35.1964V35.0581H195.144V35.1964C195.144 36.2565 194.833 37.3166 194.254 38.1463L190.25 44H185L193.053 32.1543L185.4 21H190.695L194.254 26.1623C194.833 27.0381 195.144 28.0982 195.144 29.1122V29.2966H195.811V29.1122C195.811 28.0982 196.123 27.0381 196.746 26.1623L200.261 21H205.555L197.903 32.1543Z" fill="#F9F8EC"/>
<path d="M177.935 21H183V44H177.935V29.2966C177.935 28.7435 178.027 28.1904 178.209 27.6834L178.894 25.5631L178.255 25.3788L177.662 27.1303C177.433 27.7756 177.16 28.3287 176.703 28.8357L164.019 44H159V21H164.019V35.7034C164.019 36.2565 163.928 36.7635 163.791 37.3166L163.061 39.3908L163.7 39.6212L164.293 37.8236C164.521 37.2244 164.84 36.6252 165.251 36.1643L177.935 21Z" fill="#F9F8EC"/>
<path d="M132 13H158V17.3759H147.484V43H142.516V17.3759H132V13Z" fill="#F9F8EC"/>
<path d="M335.516 70.9924H331.422V79H329V61H331.422V68.9049H335.55L341.861 61H344.488L337.426 69.7262L345 79H342.134L335.516 70.9924Z" fill="#F9F8EC"/>
<path d="M305 61H307.489V75.3042L319.792 61H322V79H319.511V64.6958L307.243 79H305V61Z" fill="#F9F8EC"/>
<path d="M282 61H284.402V68.9734H295.598V61H298V79H295.598V71.0608H284.402V79H282V61Z" fill="#F9F8EC"/>
<path d="M278 76.6325V83H275.674V78.7213H259.326V83H257V76.6325H258.041C259.268 76.5651 260.101 75.6891 260.54 74.0046C260.98 72.3201 261.281 69.9617 261.443 66.9296L261.686 61H275.154V76.6325H278ZM263.699 67.0643C263.583 69.5799 263.364 71.6575 263.04 73.2971C262.716 74.9142 262.137 76.026 261.304 76.6325H272.689V63.1225H263.907L263.699 67.0643Z" fill="#F9F8EC"/>
<path d="M255.965 70.7234H240.496C240.637 72.5626 241.375 74.0542 242.711 75.1981C244.047 76.3196 245.734 76.8804 247.773 76.8804C248.922 76.8804 249.977 76.6897 250.937 76.3084C251.898 75.9047 252.73 75.3215 253.434 74.5589L254.84 76.1065C254.02 77.0486 252.988 77.7664 251.746 78.2598C250.527 78.7533 249.18 79 247.703 79C245.805 79 244.117 78.6187 242.641 77.8561C241.188 77.071 240.051 75.9944 239.23 74.6262C238.41 73.2579 238 71.7103 238 69.9832C238 68.2561 238.387 66.7084 239.16 65.3402C239.957 63.972 241.035 62.9065 242.395 62.1439C243.777 61.3813 245.324 61 247.035 61C248.746 61 250.281 61.3813 251.641 62.1439C253 62.9065 254.066 63.972 254.84 65.3402C255.613 66.686 256 68.2336 256 69.9832L255.965 70.7234ZM247.035 63.0523C245.254 63.0523 243.754 63.6019 242.535 64.7009C241.34 65.7776 240.66 67.1907 240.496 68.9402H253.609C253.445 67.1907 252.754 65.7776 251.535 64.7009C250.34 63.6019 248.84 63.0523 247.035 63.0523Z" fill="#F9F8EC"/>
<path d="M229.369 69.692C231.79 70.2624 233 71.7338 233 74.1065C233 75.6806 232.423 76.8897 231.269 77.7338C230.115 78.5779 228.396 79 226.111 79H218V61H225.873C227.91 61 229.505 61.3992 230.658 62.1977C231.812 62.9962 232.389 64.1369 232.389 65.6198C232.389 66.6008 232.118 67.4449 231.575 68.1521C231.054 68.8365 230.319 69.3498 229.369 69.692ZM220.342 69.0076H225.704C227.084 69.0076 228.136 68.7452 228.86 68.2205C229.606 67.6958 229.98 66.9316 229.98 65.9278C229.98 64.924 229.606 64.1711 228.86 63.6692C228.136 63.1673 227.084 62.9163 225.704 62.9163H220.342V69.0076ZM226.009 77.0837C227.548 77.0837 228.701 76.8327 229.471 76.3308C230.24 75.8289 230.624 75.0418 230.624 73.9696C230.624 72.8973 230.274 72.1103 229.572 71.6084C228.871 71.0836 227.762 70.8213 226.247 70.8213H220.342V77.0837H226.009Z" fill="#F9F8EC"/>
<path d="M204.017 79C202.312 79 200.776 78.6187 199.407 77.8561C198.039 77.071 196.963 75.9944 196.178 74.6262C195.393 73.2579 195 71.7103 195 69.9832C195 68.2561 195.393 66.7084 196.178 65.3402C196.963 63.972 198.039 62.9065 199.407 62.1439C200.776 61.3813 202.312 61 204.017 61C205.721 61 207.258 61.3813 208.626 62.1439C209.994 62.9065 211.06 63.972 211.822 65.3402C212.607 66.7084 213 68.2561 213 69.9832C213 71.7103 212.607 73.2579 211.822 74.6262C211.06 75.9944 209.994 77.071 208.626 77.8561C207.258 78.6187 205.721 79 204.017 79ZM204.017 76.8804C205.273 76.8804 206.394 76.6 207.381 76.0393C208.391 75.4561 209.176 74.6374 209.736 73.5832C210.297 72.529 210.578 71.329 210.578 69.9832C210.578 68.6374 210.297 67.4374 209.736 66.3832C209.176 65.329 208.391 64.5215 207.381 63.9607C206.394 63.3776 205.273 63.086 204.017 63.086C202.761 63.086 201.628 63.3776 200.619 63.9607C199.632 64.5215 198.847 65.329 198.264 66.3832C197.703 67.4374 197.422 68.6374 197.422 69.9832C197.422 71.329 197.703 72.529 198.264 73.5832C198.847 74.6374 199.632 75.4561 200.619 76.0393C201.628 76.6 202.761 76.8804 204.017 76.8804Z" fill="#F9F8EC"/>
<path d="M190 61V79H187.593V63.1559H176.407V79H174V61H190Z" fill="#F9F8EC"/>
<path d="M159.755 61C162.091 61 163.882 61.5832 165.129 62.7495C166.376 63.8935 167 65.5981 167 67.8636V78.8318H164.687V76.0729C164.143 76.9925 163.338 77.7103 162.272 78.2262C161.229 78.7421 159.982 79 158.531 79C156.535 79 154.948 78.529 153.769 77.5869C152.59 76.6449 152 75.4 152 73.8523C152 72.3495 152.544 71.1383 153.633 70.2187C154.744 69.2991 156.501 68.8393 158.905 68.8393H164.585V67.7626C164.585 66.2374 164.154 65.0822 163.293 64.2972C162.431 63.4897 161.172 63.086 159.517 63.086C158.383 63.086 157.295 63.2766 156.252 63.6579C155.209 64.0168 154.313 64.5215 153.565 65.172L152.476 63.3888C153.383 62.6262 154.472 62.043 155.741 61.6393C157.011 61.2131 158.349 61 159.755 61ZM158.905 77.1159C160.265 77.1159 161.433 76.8131 162.408 76.2075C163.383 75.5794 164.109 74.6822 164.585 73.5159V70.6224H158.973C155.912 70.6224 154.381 71.6766 154.381 73.785C154.381 74.8168 154.778 75.6355 155.571 76.2411C156.365 76.8243 157.476 77.1159 158.905 77.1159Z" fill="#F9F8EC"/>
<path d="M144.047 69.632C145.309 69.9219 146.277 70.4238 146.953 71.1375C147.651 71.8513 148 72.7212 148 73.7472C148 74.7732 147.64 75.6877 146.919 76.4907C146.221 77.2937 145.264 77.9182 144.047 78.3643C142.831 78.7881 141.491 79 140.027 79C138.743 79 137.482 78.8216 136.243 78.4647C135.005 78.0855 133.923 77.539 133 76.8253L133.811 75.052C134.622 75.6543 135.568 76.1227 136.649 76.4572C137.73 76.7918 138.822 76.9591 139.926 76.9591C141.57 76.9591 142.91 76.658 143.946 76.0558C145.005 75.4312 145.534 74.5948 145.534 73.5465C145.534 72.6097 145.106 71.8848 144.25 71.3717C143.394 70.8364 142.223 70.5688 140.736 70.5688H137.696V68.829H140.601C141.93 68.829 143 68.5836 143.811 68.0929C144.622 67.5799 145.027 66.8996 145.027 66.052C145.027 65.1152 144.565 64.3792 143.642 63.8439C142.741 63.3085 141.559 63.0409 140.095 63.0409C138.18 63.0409 136.288 63.5204 134.419 64.4796L133.743 62.6394C135.86 61.5465 138.056 61 140.331 61C141.682 61 142.899 61.2007 143.98 61.6022C145.083 61.9814 145.939 62.5279 146.547 63.2416C147.178 63.9554 147.493 64.7807 147.493 65.7175C147.493 66.6097 147.178 67.4015 146.547 68.0929C145.939 68.7844 145.106 69.2974 144.047 69.632Z" fill="#F9F8EC"/>
<path fill-rule="evenodd" clip-rule="evenodd" d="M63.4763 1.46377C60.9281 3.07521 57.5441 6.58019 56.645 8.5397C55.7609 10.4652 55.1937 10.0511 55.1937 7.48051C55.1937 4.44841 54.3434 4.46134 51.6191 7.53366C49.6116 9.79793 47.4025 14.4631 47.4025 16.4381C47.4025 17.851 47.0114 17.9763 44.9166 17.2337C42.6815 16.4417 39.6113 16.2906 39.6113 16.9729C39.6113 17.2302 40.2138 18.5941 40.9508 20.0039C42.8867 23.709 43.0628 26.0712 41.7045 30.1238C40.2034 34.6013 37.8764 37.9464 34.6935 40.2013C32.5436 41.7246 31.6684 42.0299 29.45 42.0299C24.5431 42.0299 23.604 44.5943 27.2752 47.9662C32.1094 52.4061 37.3653 54.148 45.9279 54.148C54.4354 54.148 58.9844 55.4078 62.0484 58.6126C66.7393 63.5197 65.9555 72.5112 60.123 80.7046C57.4542 84.4535 52.9862 88.6979 51.71 88.6958C50.0469 88.6937 38.8254 81.3667 30.5537 74.8823C25.3082 70.7699 17.024 62.3171 12.9778 56.9496C9.2598 52.0172 4.88996 43.8177 3.51455 39.1938C3.05072 37.6339 2.53806 34.2692 2.37548 31.7167C1.55429 18.8267 7.93063 7.84662 18.575 3.82135C20.5306 3.08189 22.5189 2.83954 26.6259 2.83954C32.9799 2.83954 35.7801 3.62234 40.6875 6.77149C42.9397 8.21638 44.0705 8.67425 44.4527 8.29472C45.877 6.88078 38.1896 2.26561 32.4439 1.08475C25.4905 -0.344155 18.3179 0.935733 12.3659 4.66758C2.4856 10.8622 -2.38339 25.5421 1.14604 38.4925C2.63572 43.9575 7.20032 52.9795 11.0237 58.0154C18.161 67.4155 29.2443 77.2744 41.892 85.474C51.442 91.665 51.39 91.6449 54.198 90.2227C60.1147 87.2262 72.2762 78.4919 79.6052 71.9755C89.6766 63.0205 96.442 52.2153 97.3858 43.5769C97.5546 42.033 97.5582 42.0351 99.3061 44.7372C100.27 46.2264 101.247 47.4444 101.479 47.4444C102.322 47.4444 103.089 42.9761 102.853 39.4516C102.651 36.4489 102.015 34.2594 100.497 31.3299C100.059 30.4858 101.836 31.0138 103.476 32.2153C105.655 33.8118 106.299 33.4411 105.879 30.8313C105.4 27.8559 103.746 24.9522 100.724 21.7798L98.0626 18.9865L100.132 19.085C103.158 19.2284 103.499 19.1562 103.499 18.3749C103.499 16.5882 96.3309 11.563 92.4617 10.6384C90.3607 10.1362 90.7186 9.37867 93.3707 8.71604C94.6563 8.39427 95.7081 7.842 95.7081 7.48826C95.7081 6.50953 90.6438 4.62373 87.1377 4.2968C85.4237 4.13695 83.1081 4.25712 81.9924 4.56394C79.0666 5.36785 78.6863 4.75834 80.8726 2.76995C81.9233 1.81442 82.6386 0.801147 82.4625 0.518048C81.9971 -0.229147 77.5618 -0.112617 74.7741 0.720694C73.4543 1.11466 71.1714 2.17229 69.701 3.07057C68.2305 3.96885 66.9086 4.58662 66.7637 4.44275C66.6193 4.29888 66.7616 3.43873 67.08 2.53116C67.3989 1.6236 67.6597 0.683589 67.6597 0.442259C67.6597 -0.434368 65.7337 0.0364125 63.4763 1.46377Z" fill="#F9F8EC"/>
</svg>
