<svg width="114" height="109" viewBox="0 0 114 109" fill="none" xmlns="http://www.w3.org/2000/svg">
<path d="M29.7747 67.0536C31.8299 58.3473 38.764 48.1645 55.5302 50.7252C72.2965 53.2858 79.4357 66.2941 77.705 76.332C87.9811 81.8631 88.7384 99.0988 72.2965 101.222C65.1573 102.144 53.1505 101.222 47.9583 91.4912C40.3864 97.9442 24.9194 102.52 17.4545 91.4912C9.98952 80.4624 20.7962 69.4521 29.7747 67.0536Z" stroke="#817F0D" stroke-width="3" stroke-linejoin="round"/>
<path d="M6.25368 35.9749C-2.50841 39.5598 4.79405 70.9601 20.6402 61.5817C33.6204 53.8996 16.4213 31.815 6.25368 35.9749Z" stroke="#817F0D" stroke-width="3" stroke-linejoin="round"/>
<path d="M110.037 51.2402C115.411 58.7103 91.488 81.5281 83.4076 65.5732C76.7886 52.5041 103.802 42.5718 110.037 51.2402Z" stroke="#817F0D" stroke-width="3" stroke-linejoin="round"/>
<path d="M77.4387 11.5873C89.7516 12.7185 93.8982 54.2043 70.4174 48.5863C51.1835 43.9844 63.1507 10.2745 77.4387 11.5873Z" stroke="#817F0D" stroke-width="3" stroke-linejoin="round"/>
<path d="M35.6492 9.54797C23.3363 10.6792 19.1897 52.165 42.6705 46.547C61.9044 41.9451 49.9372 8.23523 35.6492 9.54797Z" stroke="#817F0D" stroke-width="3" stroke-linejoin="round"/>
<path d="M2.5 106.5L106.5 2.5" stroke="#DB5228" stroke-width="5" stroke-linecap="round" stroke-linejoin="round"/>
<path d="M2.50001 2.5L106.5 106.5" stroke="#DB5228" stroke-width="5" stroke-linecap="round" stroke-linejoin="round"/>
</svg>
