<svg width="109" height="109" viewBox="0 0 109 109" fill="none" xmlns="http://www.w3.org/2000/svg">
<path d="M96.8096 44C94.5672 24.5 65.2017 22.1645 57.1491 28.6063C57.1491 19.6782 74.7286 9.84591 82.1006 10.524C81.5336 7.81166 79.7189 3.74315 69.5115 2.5C60.2114 5.55138 55.1076 21.5994 56.015 28.6063C53.8601 26.459 24.6124 17.3089 15.3094 38.5C6.30968 59 14.3089 87.5 28.309 94C42.3091 100.5 52.5997 91.6952 53.8095 90C53.8095 92.1473 65.2199 98.8837 78.3096 94C97.4118 86.8731 98.5919 59.5 96.8096 44Z" stroke="#817F0D" stroke-width="3" stroke-linejoin="round"/>
<path d="M55.7647 26.8568C58.3779 18.6305 52.6369 2.64484 37.3677 5.93904C34.7564 21.2773 48.5443 26.2751 55.7647 26.8568Z" stroke="#817F0D" stroke-width="3" stroke-linejoin="round"/>
<path d="M2.5 106.5L106.5 2.5" stroke="#DB5228" stroke-width="5" stroke-linecap="round" stroke-linejoin="round"/>
<path d="M2.50001 2.5L106.5 106.5" stroke="#DB5228" stroke-width="5" stroke-linecap="round" stroke-linejoin="round"/>
</svg>
