<svg width="118" height="109" viewBox="0 0 118 109" fill="none" xmlns="http://www.w3.org/2000/svg">
<path d="M115.892 84.6819V36.0808C115.892 30.558 111.415 26.0808 105.892 26.0808H90.2115C86.1877 26.0808 82.592 23.5686 81.2079 19.7904C79.8238 16.0122 76.2281 13.5 72.2043 13.5H44.065C40.0961 13.5 36.569 16.0306 35.2976 19.7904L34.2458 22.9008C33.6031 24.8015 31.82 26.0808 29.8135 26.0808H28.6359C26.7022 26.0808 25.1347 24.5132 25.1347 22.5796C25.1347 20.6459 23.5671 19.0783 21.6334 19.0783H11.9735C10.0398 19.0783 8.47223 20.6534 8.47223 22.5871C8.47223 24.5125 6.91144 26.0808 4.98611 26.0808C3.06079 26.0808 1.5 27.6416 1.5 29.5669V84.6819C1.5 90.2047 5.97715 94.6819 11.5 94.6819H105.892C111.415 94.6819 115.892 90.2047 115.892 84.6819Z" stroke="#817F0D" stroke-width="3" stroke-linejoin="round"/>
<path d="M57.75 35.533C71.339 35.533 82.366 46.5986 82.3662 60.2625C82.3662 73.9265 71.3391 84.9929 57.75 84.9929C44.161 84.9929 33.1338 73.9265 33.1338 60.2625C33.134 46.5986 44.1611 35.533 57.75 35.533Z" stroke="#817F0D" stroke-width="3"/>
<path d="M57.75 43.1289C67.4318 43.1292 75.2754 50.9626 75.2754 60.6191C75.2752 70.2756 67.4316 78.1081 57.75 78.1084C48.0681 78.1084 40.2238 70.2757 40.2236 60.6191C40.2236 50.9624 48.068 43.1289 57.75 43.1289Z" stroke="#817F0D" stroke-width="3"/>
<path d="M26.5291 24.8812L50.3284 51.3148L15.5 48.1679L44.2048 61.2417L15.5 68.1139L44.2048 66.4705L31.6749 94.112L54 70.1819L78.5 94.112L66.5 64.6819L100.5 68.1139L68.4817 54.8176L97.6445 43.9117L62.6797 46.1527L66.5 13.6819L56.2669 43.9117L26.5291 24.8812Z" fill="#F9F8EC" stroke="#817F0D" stroke-width="2" stroke-linejoin="round"/>
<path d="M6.5 106.5L110.5 2.5" stroke="#DB5228" stroke-width="5" stroke-linecap="round" stroke-linejoin="round"/>
<path d="M6.50001 2.5L110.5 106.5" stroke="#DB5228" stroke-width="5" stroke-linecap="round" stroke-linejoin="round"/>
</svg>
