<svg width="109" height="109" viewBox="0 0 109 109" fill="none" xmlns="http://www.w3.org/2000/svg">
<path d="M20.1403 71.8628C20.3217 89.8058 32.9301 101.232 47.9877 101.5C78.1029 101.5 95.4282 49.1885 89.26 46.0641C83.0919 42.9397 71.9347 66.6852 69.667 66.2389C67.3993 65.7925 73.2954 14.1951 63.6803 14.1951C57.5121 14.1951 60.959 53.9198 57.5121 53.9198C54.0652 53.9198 60.052 7.5 50.709 7.5C41.366 7.5 47.9877 53.652 44.5408 53.9198C41.0939 54.1876 47.9877 14.0166 38.3727 14.1951C28.7576 14.3737 35.1979 59.7222 31.2974 59.7222C27.3969 59.7222 32.7487 24.5503 24.9478 24.7288C17.1469 24.9074 19.9588 53.9197 20.1403 71.8628Z" stroke="#817F0D" stroke-width="3" stroke-linejoin="round"/>
<path d="M2.5 106.5L106.5 2.5" stroke="#DB5228" stroke-width="5" stroke-linecap="round" stroke-linejoin="round"/>
<path d="M2.50001 2.5L106.5 106.5" stroke="#DB5228" stroke-width="5" stroke-linecap="round" stroke-linejoin="round"/>
</svg>
