<svg width="32" height="32" viewBox="0 0 32 32" fill="none" xmlns="http://www.w3.org/2000/svg">
<rect width="32" height="32" rx="8" fill="#F9F8EC"/>
<path d="M24.3012 7.29942C24.0122 7.31145 23.747 7.39101 23.514 7.4789C23.2987 7.56004 22.5258 7.87099 21.2949 8.36511C20.0641 8.85922 18.4332 9.51435 16.6947 10.2142C13.2179 11.6138 9.31076 13.1882 7.30876 13.9945C7.24001 14.022 6.9608 14.1038 6.65243 14.3292C6.34334 14.5552 6 15.0455 6 15.5818C6 16.0145 6.22564 16.4551 6.49811 16.7074C6.77058 16.9596 7.04672 17.0776 7.27751 17.1654V17.1635C8.05764 17.461 10.3874 18.3533 10.942 18.5658C11.1388 19.1301 11.9835 21.546 12.1844 22.1536H12.1824C12.3245 22.5836 12.4629 22.8638 12.6552 23.0977C12.7513 23.2147 12.866 23.3207 13.0068 23.4043C13.0608 23.4365 13.1206 23.4614 13.1806 23.4847C13.189 23.4881 13.1976 23.489 13.206 23.4922L13.1826 23.4866C13.2 23.4933 13.2156 23.5032 13.2333 23.509C13.2623 23.5186 13.2823 23.5183 13.3213 23.5259C13.4583 23.5662 13.595 23.5932 13.7217 23.5932C14.2654 23.5932 14.5988 23.3109 14.5988 23.3109L14.6202 23.2959L16.9682 21.3945L19.8436 23.9409C19.8961 24.0119 20.3075 24.5448 21.2598 24.5448C21.828 24.5448 22.2772 24.2756 22.5646 23.9933C22.852 23.7109 23.0311 23.422 23.1116 23.0304L23.1135 23.0286C23.1777 22.7125 25.9303 9.48314 25.9303 9.48314L25.9244 9.50557C26.0101 9.13958 26.0354 8.78563 25.9342 8.42493C25.833 8.06424 25.5599 7.71223 25.231 7.52751C24.9021 7.3428 24.5902 7.28739 24.3012 7.29942ZM23.9066 9.39527C23.7978 9.91795 21.3321 21.7744 21.1797 22.5181L17.0268 18.8406L14.2198 21.1122L14.9972 18.2031C14.9972 18.2031 20.3605 13.007 20.6835 12.7045C20.9436 12.4623 20.998 12.3774 20.998 12.2932C20.998 12.1812 20.9378 12.1006 20.7988 12.1006C20.6738 12.1006 20.504 12.2153 20.414 12.2689C19.2702 12.9514 14.3985 15.6086 12.0027 16.913C11.8585 16.8577 9.69396 16.0258 8.52767 15.58C10.6022 14.7443 14.1583 13.3123 17.4702 11.9791C19.2084 11.2794 20.8388 10.6237 22.0685 10.13C23.1064 9.71333 23.6479 9.49757 23.9066 9.39527ZM21.1504 22.6546H21.1523L21.1504 22.6602C21.1517 22.6541 21.1494 22.6595 21.1504 22.6546Z" fill="#DB5228"/>
</svg>
