<svg width="263" height="115" viewBox="0 0 263 115" fill="none" xmlns="http://www.w3.org/2000/svg">
<path d="M5.96578 87.2919L34.6938 48.8108C36.704 46.1181 40.7449 46.1352 42.7322 48.8448L70.9563 87.3259C73.3786 90.6285 71.0202 95.283 66.9245 95.283H9.9724C5.85727 95.283 3.50399 90.5895 5.96578 87.2919Z" stroke="#817F0D" stroke-width="3"/>
<path d="M12.0659 56.9831L35.2694 26.3165C37.2807 23.6583 41.2807 23.6753 43.2694 26.3505L66.0658 57.0171C68.518 60.3159 66.1635 65 62.053 65H16.0532C11.9232 65 9.57394 60.2765 12.0659 56.9831Z" fill="#F9F8EC" stroke="#817F0D" stroke-width="3"/>
<path d="M31.1328 94.7642V108.434C31.1328 111.737 34.2785 114.132 37.4625 113.254L42.5096 111.862C44.678 111.263 46.18 109.291 46.18 107.042V94.7642" stroke="#817F0D" stroke-width="3"/>
<path d="M97.4324 83.2737L127.222 34.456C129.18 31.2473 133.846 31.2656 135.779 34.4896L165.046 83.3072C167.044 86.6399 164.643 90.8782 160.757 90.8782H101.701C97.7973 90.8782 95.3993 86.6055 97.4324 83.2737Z" stroke="#817F0D" stroke-width="3"/>
<path d="M103.511 61.1998L127.794 21.9367C129.757 18.7621 134.381 18.7803 136.319 21.9703L160.176 61.2334C162.201 64.5655 159.802 68.8298 155.903 68.8298H107.763C103.847 68.8298 101.451 64.5308 103.511 61.1998Z" fill="#F9F8EC" stroke="#817F0D" stroke-width="3"/>
<path d="M103.511 46.1998L127.794 6.93673C129.757 3.76206 134.381 3.78028 136.319 6.97035L160.176 46.2334C162.201 49.5655 159.802 53.8298 155.903 53.8298H107.763C103.847 53.8298 101.451 49.5308 103.511 46.1998Z" fill="#F9F8EC" stroke="#817F0D" stroke-width="3"/>
<path d="M123.925 90.2434V108.036C123.925 111.456 127.283 113.867 130.524 112.773L135.571 111.07C137.603 110.384 138.972 108.477 138.972 106.332V90.2434" stroke="#817F0D" stroke-width="3"/>
<path d="M190.224 82.874L220.014 34.0564C221.972 30.8477 226.638 30.866 228.571 34.0899L257.838 82.9076C259.836 86.2402 257.435 90.4785 253.549 90.4785H194.493C190.589 90.4785 188.191 86.2059 190.224 82.874Z" stroke="#817F0D" stroke-width="3"/>
<path d="M216.717 89.8438V107.636C216.717 111.057 220.075 113.467 223.316 112.373L228.363 110.67C230.395 109.984 231.764 108.078 231.764 105.932V89.8438" stroke="#817F0D" stroke-width="3"/>
</svg>
