<svg width="32" height="32" viewBox="0 0 32 32" fill="none" xmlns="http://www.w3.org/2000/svg">
<g clip-path="url(#clip0_41_304)">
<path d="M0 21.1242V10.9054C0.00406288 10.9154 0.0139075 10.9262 0.0201581 10.9143C0.0279713 10.8996 0.0289089 10.8801 0.0293777 10.8626C0.0406288 10.4321 0.0512548 10.0014 0.0625058 9.57076C0.0675063 9.38246 0.0793824 9.19463 0.0912585 9.00665C0.102041 8.83429 0.11798 8.66177 0.121418 8.48972C0.125793 8.27752 0.167047 8.06968 0.174235 7.8581C0.178923 7.72059 0.207363 7.58417 0.217364 7.44666C0.231897 7.2457 0.276119 7.04896 0.29409 6.84863C0.312216 6.64596 0.358002 6.44766 0.388942 6.24701C0.424883 6.01449 0.488639 5.78744 0.533174 5.55726C0.573334 5.34959 0.640216 5.15098 0.692564 4.94783C0.742256 4.75516 0.817888 4.56873 0.887739 4.38184C0.966496 4.17135 1.05635 3.96493 1.15729 3.76413C1.22871 3.62208 1.31965 3.49004 1.39654 3.35112C1.49014 3.1822 1.59905 3.025 1.71078 2.86889C1.79063 2.75747 1.88893 2.66028 1.97284 2.55339C2.05378 2.4501 2.14473 2.35634 2.23411 2.26336C2.35694 2.13538 2.49804 2.0235 2.63071 1.90489C2.76526 1.78457 2.90949 1.67956 3.05606 1.5783C3.23139 1.4572 3.41625 1.3489 3.60268 1.2453C3.73253 1.17311 3.86989 1.11357 4.00553 1.05153C4.16929 0.976682 4.33571 0.909645 4.50229 0.84292C4.73059 0.751662 4.96796 0.687124 5.20455 0.621806C5.40925 0.565394 5.61552 0.513202 5.8232 0.470073C6.06431 0.419912 6.30699 0.375689 6.55061 0.339592C6.79172 0.303964 7.03378 0.274586 7.27583 0.244896C7.50398 0.216925 7.73275 0.195985 7.96105 0.172233C8.15998 0.151606 8.35999 0.137855 8.5597 0.125197C8.75222 0.113165 8.94567 0.113009 9.13757 0.0887876C9.34368 0.0628477 9.55135 0.0806619 9.7584 0.0644104C9.93076 0.0509716 10.1048 0.0528468 10.2783 0.0453461C10.6033 0.0312823 10.9288 0.0273757 11.2542 0.017531C11.2732 0.016906 11.3031 0.0353452 11.3121 -0.0012207H21.0309C21.0204 0.00284217 21.0116 0.0100303 21.0227 0.019875C21.0423 0.0370641 21.0673 0.0295634 21.0899 0.0298759C21.3442 0.0340951 21.5978 0.0392518 21.852 0.0572222C22.1149 0.0758177 22.3797 0.0656605 22.6429 0.0956633C22.7499 0.107852 22.8588 0.0991011 22.9678 0.107539C23.1339 0.120353 23.3009 0.136292 23.4673 0.142699C23.6117 0.148324 23.753 0.157231 23.8963 0.176296C23.9622 0.185047 24.0408 0.196141 24.1146 0.187078C24.253 0.170201 24.3857 0.240833 24.5252 0.217237C24.5318 0.216143 24.5393 0.224269 24.5466 0.224894C24.6543 0.233332 24.759 0.261304 24.8675 0.268492C24.9162 0.271617 24.9753 0.266929 25.0154 0.2874C25.0733 0.316778 25.1328 0.295994 25.1925 0.318496C25.2586 0.343499 25.3439 0.328497 25.4206 0.339436C25.453 0.343968 25.4714 0.384753 25.5038 0.37272C25.5882 0.341311 25.6653 0.390847 25.7469 0.394754C25.9346 0.403661 26.118 0.463979 26.3026 0.504607C26.4051 0.527266 26.5098 0.544611 26.6114 0.573364C26.6551 0.585865 26.6903 0.618055 26.7387 0.622431C26.8389 0.631494 26.9364 0.658215 27.0294 0.694156C27.1452 0.738848 27.2655 0.769163 27.3813 0.816043C27.4954 0.862141 27.6137 0.90777 27.7338 0.943398C27.8232 0.969963 27.8985 1.03872 27.9857 1.06247C28.0665 1.0845 28.1337 1.12795 28.2093 1.15545C28.3193 1.19545 28.4129 1.2664 28.5123 1.32359C28.585 1.36547 28.6577 1.42454 28.7314 1.45829C28.8656 1.51955 28.9688 1.62018 29.0918 1.69409C29.2477 1.78785 29.3737 1.92146 29.5102 2.03944C29.582 2.10147 29.6532 2.16679 29.7239 2.23164C29.7765 2.27993 29.8121 2.35447 29.8612 2.3926C29.9575 2.46745 30.0172 2.5698 30.1026 2.6509C30.2367 2.7781 30.3287 2.94061 30.4356 3.08953C30.5133 3.19783 30.5805 3.31674 30.6491 3.43285C30.6724 3.47223 30.6766 3.53286 30.6997 3.55301C30.7763 3.6199 30.7988 3.71209 30.8458 3.79257C30.8916 3.87086 30.9086 3.96024 30.9483 4.03728C30.983 4.10463 31.0126 4.17526 31.0458 4.24308C31.1054 4.36387 31.1521 4.49154 31.1982 4.61843C31.2493 4.75953 31.292 4.90345 31.3249 5.05018C31.3457 5.14254 31.3682 5.23676 31.3984 5.32412C31.4603 5.50366 31.4787 5.69228 31.5367 5.87151C31.5767 5.99527 31.5629 6.12904 31.6076 6.25373C31.6218 6.29327 31.6093 6.34562 31.6225 6.39265C31.6359 6.44125 31.6318 6.49485 31.6462 6.54314C31.6818 6.66237 31.6933 6.78456 31.7014 6.90755C31.705 6.96161 31.709 7.01865 31.7211 7.06803C31.7448 7.16679 31.7442 7.26805 31.767 7.36556C31.7901 7.46494 31.755 7.56886 31.7994 7.66683C31.8104 7.69137 31.777 7.73934 31.7901 7.75919C31.8434 7.83998 31.7919 7.93233 31.8312 8.01624C31.8753 8.11047 31.8558 8.22235 31.8592 8.32143C31.864 8.45831 31.9001 8.5963 31.8745 8.73443C31.8723 8.74662 31.8631 8.76069 31.8665 8.77037C31.9209 8.92054 31.8933 9.07759 31.9091 9.23057C31.9275 9.41075 31.9145 9.59123 31.9342 9.77156C31.9541 9.95423 31.9503 10.1396 31.9559 10.3236C31.9614 10.5032 31.9647 10.6827 31.9717 10.8623C31.9722 10.8742 31.9426 10.9239 31.9998 10.9046V21.0765C31.9956 21.0664 31.9867 21.0562 31.9794 21.0681C31.972 21.08 31.9709 21.0971 31.9708 21.1121C31.9684 21.4606 31.9528 21.8085 31.9367 22.1565C31.9348 22.1958 31.9584 22.2341 31.9497 22.2693C31.9009 22.4656 31.9351 22.6674 31.9051 22.8645C31.8994 22.9028 31.9198 22.9337 31.9133 22.9756C31.8912 23.1158 31.8722 23.2595 31.88 23.4005C31.8853 23.4967 31.8647 23.5894 31.8608 23.6829C31.8564 23.7883 31.8589 23.8991 31.8306 24.0055C31.8192 24.0482 31.813 24.0951 31.8105 24.142C31.8037 24.2673 31.7867 24.3918 31.7803 24.5178C31.7745 24.634 31.7498 24.7492 31.7345 24.865C31.722 24.9606 31.7168 25.058 31.7004 25.1519C31.68 25.2692 31.6611 25.388 31.6343 25.5049C31.6047 25.6351 31.5995 25.7759 31.5775 25.9098C31.5407 26.1328 31.4767 26.3512 31.4346 26.5736C31.4043 26.7344 31.3248 26.8796 31.2995 27.0408C31.2657 27.2562 31.1551 27.4452 31.0907 27.6502C31.0543 27.7664 30.9818 27.8693 30.9427 27.9831C30.8671 28.2037 30.7425 28.3953 30.6232 28.5917C30.5696 28.6799 30.5389 28.7816 30.4714 28.8629C30.4344 28.9072 30.3927 28.9494 30.3647 28.9991C30.3305 29.0599 30.2898 29.1144 30.2467 29.1685C30.1664 29.2693 30.0787 29.3638 29.9967 29.4629C29.9261 29.5482 29.8609 29.6372 29.781 29.715C29.6703 29.823 29.5493 29.9194 29.4346 30.0219C29.2772 30.1625 29.1089 30.286 28.9414 30.4122C28.8678 30.4677 28.7853 30.5054 28.7072 30.5516C28.5886 30.6219 28.4689 30.6908 28.3543 30.7674C28.1725 30.889 27.9532 30.9299 27.7691 31.0457C27.6791 31.1023 27.5697 31.1065 27.4744 31.1545C27.3699 31.207 27.2553 31.2411 27.1427 31.2748C27.0874 31.2914 27.0198 31.2936 26.9727 31.3125C26.908 31.3382 26.8401 31.3601 26.7747 31.3792C26.6689 31.4101 26.5615 31.4359 26.4493 31.4497C26.3681 31.4597 26.2767 31.5039 26.1877 31.5244C26.048 31.5564 25.9076 31.593 25.7655 31.6047C25.6489 31.6142 25.536 31.615 25.4241 31.6617C25.363 31.6872 25.2891 31.6922 25.2178 31.6881C25.1644 31.6852 25.1033 31.6817 25.0578 31.7038C24.9978 31.733 24.9268 31.6892 24.8761 31.7428C24.8745 31.7445 24.8703 31.7461 24.8689 31.7453C24.8012 31.7003 24.7321 31.748 24.6754 31.7622C24.5479 31.7942 24.4185 31.7825 24.2913 31.8019C24.2177 31.8131 24.1368 31.8211 24.0577 31.8211C23.9482 31.8211 23.8347 31.8477 23.7228 31.8558C23.6397 31.8619 23.5487 31.8522 23.4726 31.8656C23.257 31.9036 23.0396 31.8908 22.8241 31.9163C22.6187 31.9406 22.4094 31.9317 22.2017 31.9375C22.181 31.9381 22.16 31.9385 22.1392 31.9397C21.8542 31.9574 21.5687 31.9596 21.2832 31.9633C21.2576 31.9636 21.2087 31.9399 21.2034 31.9983H20.4377C20.4505 31.9917 20.4461 31.9852 20.4383 31.9777C20.4322 31.9717 20.4275 31.9717 20.4214 31.9777C20.4136 31.9852 20.4092 31.9917 20.4221 31.9983H11.5939C11.6083 31.9746 11.5898 31.9692 11.5742 31.9688C11.5573 31.9682 11.5325 31.9671 11.547 31.9983H10.7813C10.7937 31.975 10.7779 31.9724 10.7607 31.9667C10.7227 31.9542 10.6857 31.9691 10.648 31.9677C10.4139 31.9588 10.1799 31.951 9.94545 31.95C9.79575 31.9494 9.64558 31.9389 9.49635 31.9244C9.34259 31.9094 9.18882 31.9292 9.03302 31.8978C8.95661 31.8824 8.86176 31.8935 8.77534 31.8883C8.6433 31.8805 8.51157 31.8699 8.37968 31.86C8.28796 31.8531 8.19232 31.8333 8.10638 31.8352C7.95339 31.8386 7.80729 31.8011 7.65712 31.7984C7.59008 31.7972 7.5232 31.7836 7.45616 31.78C7.2552 31.7692 7.05753 31.7328 6.85876 31.7048C6.62108 31.6714 6.38434 31.6323 6.15213 31.5694C6.03384 31.6117 5.92977 31.5362 5.81773 31.5239C5.65256 31.5058 5.4927 31.4448 5.32846 31.4128C5.19564 31.3868 5.07563 31.3251 4.94077 31.3C4.73997 31.2625 4.55339 31.166 4.35837 31.1018C4.23414 31.0609 4.12538 30.9826 4.00318 30.9398C3.86817 30.8924 3.74503 30.8234 3.61752 30.7621C3.60315 30.7552 3.57627 30.7535 3.57799 30.7307C3.58158 30.6821 3.54314 30.693 3.51876 30.6871C3.50204 30.683 3.48392 30.6896 3.46657 30.6787C3.33937 30.5985 3.21092 30.52 3.08419 30.4393C3.05388 30.4199 3.04997 30.3768 3.0095 30.3605C2.87042 30.3042 2.74697 30.226 2.66915 30.0913C2.66259 30.08 2.65353 30.0799 2.64337 30.08C2.60071 30.0803 2.57508 30.0655 2.57477 30.0169C2.57461 29.992 2.55242 29.9864 2.52883 29.9866C2.5082 29.9867 2.48836 29.9811 2.47304 29.9642C2.3785 29.8606 2.26568 29.7764 2.17114 29.6717C2.07785 29.5684 1.99972 29.4514 1.89955 29.3557C1.76251 29.2251 1.66703 29.064 1.55983 28.9124C1.33512 28.5947 1.15792 28.2497 1.0015 27.8937C0.92868 27.7282 0.867112 27.5584 0.803668 27.389C0.729599 27.1908 0.688814 26.9828 0.616307 26.7844C0.608963 26.7644 0.600056 26.7411 0.612557 26.7249C0.638653 26.6909 0.613026 26.6728 0.596462 26.6513C0.555051 26.5972 0.541925 26.5341 0.547863 26.4694C0.549739 26.4483 0.553645 26.4278 0.5413 26.4136C0.479419 26.3425 0.502547 26.2486 0.4727 26.167C0.405663 25.9838 0.412069 25.7827 0.361596 25.5937C0.351126 25.5546 0.370347 25.5051 0.353939 25.4708C0.281432 25.32 0.306747 25.1536 0.278932 24.9963C0.267056 24.9291 0.243773 24.8575 0.244241 24.7833C0.245179 24.6584 0.190799 24.5354 0.225958 24.4073C0.22799 24.4001 0.235491 24.374 0.207363 24.3681C0.188455 24.364 0.181736 24.3396 0.188299 24.3223C0.212363 24.2598 0.194549 24.2018 0.172047 24.1449C0.159546 24.1134 0.212676 24.098 0.190643 24.0715C0.135794 24.0057 0.15267 23.9237 0.144076 23.851C0.115479 23.611 0.125324 23.3677 0.0940712 23.1273C0.0828202 23.0409 0.132669 22.9506 0.0782885 22.8665C0.0770384 22.8647 0.0782885 22.8614 0.0781322 22.8589C0.0676625 22.7615 0.0882894 22.6654 0.06735 22.5651C0.0406288 22.4376 0.0554739 22.3023 0.0525049 22.1711C0.0450042 21.8406 0.031878 21.5102 0.0303153 21.1797C0.0303153 21.159 0.0314092 21.1367 0.0243773 21.1181C0.0182829 21.102 0.00562552 21.1079 0.000156264 21.1234L0 21.1242ZM21.2804 16.3575C21.3745 16.3239 21.4373 16.2447 21.5201 16.2062C21.6815 16.1312 21.8111 16.0121 21.9573 15.9168C22.0945 15.8274 22.2128 15.709 22.345 15.6138C22.514 15.4922 22.6715 15.3568 22.8196 15.2158C23.041 15.0052 23.2578 14.7881 23.465 14.5618C23.6734 14.3342 23.8725 14.0996 24.0647 13.8585C24.1444 13.7585 24.2287 13.6594 24.2983 13.5546C24.3777 13.4352 24.4662 13.321 24.5382 13.1963C24.6003 13.0891 24.6859 12.9965 24.7353 12.8817C24.7759 12.7873 24.8395 12.7061 24.8817 12.6106C24.9154 12.5342 24.9739 12.464 25.0156 12.3857C25.1373 12.1569 25.2483 11.9241 25.3486 11.6847C25.4041 11.5522 25.4799 11.4275 25.5128 11.2859C25.5313 11.2062 25.585 11.1397 25.6033 11.0653C25.6477 10.8835 25.7107 10.7077 25.76 10.5279C25.7938 10.4047 25.8516 10.2849 25.8647 10.16C25.8782 10.0333 25.9218 9.91392 25.9316 9.78672C25.9358 9.73234 25.9269 9.7325 25.8874 9.73265C25.7416 9.73328 25.5958 9.73281 25.4499 9.73281C24.502 9.73281 23.5541 9.73328 22.6062 9.73171C22.5508 9.73171 22.5144 9.74422 22.4894 9.79703C22.4529 9.87423 22.4355 9.95798 22.4099 10.0378C22.3433 10.2461 22.2675 10.4521 22.1822 10.6515C22.0816 10.8867 21.9775 11.1225 21.8509 11.3469C21.785 11.4639 21.73 11.5899 21.6579 11.7013C21.4975 11.9494 21.3434 12.2019 21.1734 12.4443C21.1037 12.5437 21.0271 12.6382 20.9537 12.7337C20.8799 12.8297 20.8005 12.924 20.7165 13.0137C20.5861 13.1531 20.4613 13.2988 20.3231 13.4299C20.1645 13.5805 20.0031 13.7286 19.8406 13.8754C19.7226 13.982 19.5987 14.0806 19.4681 14.1667C19.3524 14.2429 19.2283 14.3085 19.1188 14.3936C19.0147 14.4745 18.8893 14.5101 18.7785 14.5747C18.5125 14.7294 18.2231 14.8262 17.9324 14.9177C17.8004 14.9591 17.6595 14.9733 17.5221 14.9964C17.4629 15.0064 17.4366 14.9881 17.4366 14.915C17.4394 13.2172 17.4385 11.5192 17.4402 9.82141C17.4402 9.75312 17.4269 9.73078 17.3529 9.73109C16.267 9.73374 15.1811 9.7339 14.0951 9.73109C14.0179 9.73093 13.9975 9.74718 13.9975 9.82719C14 12.0563 13.9996 14.2854 13.9996 16.5145C13.9996 17.3035 13.9983 18.0926 14.0016 18.8816C14.0019 18.9526 13.9704 18.9565 13.9204 18.9512C13.9029 18.9493 13.8858 18.9415 13.8689 18.9352C13.7582 18.8946 13.6494 18.8471 13.5363 18.8149C13.4536 18.7913 13.3709 18.7644 13.2967 18.7261C13.0806 18.6146 12.8623 18.5077 12.6576 18.373C12.4829 18.2581 12.3171 18.1317 12.1488 18.0092C11.8981 17.8268 11.6937 17.5913 11.4786 17.3702C11.2595 17.1454 11.0781 16.8886 10.8985 16.6305C10.6938 16.3364 10.5196 16.0259 10.3528 15.7104C10.2189 15.4569 10.0984 15.1971 9.99077 14.9317C9.93092 14.7842 9.8681 14.6375 9.82029 14.4848C9.75403 14.2731 9.67371 14.0656 9.61308 13.8524C9.5362 13.5822 9.48901 13.3044 9.41009 13.0342C9.39618 12.9865 9.36712 12.9372 9.36931 12.8917C9.37634 12.7387 9.31961 12.5976 9.30055 12.4498C9.28242 12.3102 9.25148 12.1723 9.23179 12.0324C9.21726 11.9289 9.22367 11.8228 9.19163 11.7214C9.18429 11.698 9.1621 11.683 9.16476 11.6531C9.18179 11.4647 9.13241 11.2809 9.12038 11.0943C9.10725 10.8918 9.08209 10.6901 9.07819 10.4868C9.07756 10.4585 9.07584 10.4312 9.07006 10.4026C9.04631 10.2832 9.0649 10.1608 9.04912 10.0391C9.04053 9.97392 9.05256 9.89704 9.05725 9.82563C9.06193 9.75343 9.04037 9.73062 8.96286 9.73078C7.80666 9.73375 6.65046 9.73281 5.49426 9.73281C5.47863 9.73281 5.46285 9.73406 5.44738 9.73265C5.41488 9.72968 5.39941 9.74031 5.40191 9.77609C5.41488 9.95205 5.39269 10.1293 5.41831 10.3052C5.42222 10.3322 5.44425 10.3535 5.433 10.3861C5.40722 10.4613 5.41878 10.5409 5.42347 10.6174C5.4341 10.7921 5.46301 10.966 5.46519 11.1406C5.46723 11.2939 5.5052 11.4425 5.50301 11.5964C5.50145 11.7022 5.53708 11.808 5.54411 11.9146C5.5502 12.0071 5.58771 12.0996 5.58411 12.1838C5.57958 12.2888 5.62333 12.381 5.62005 12.4832C5.61724 12.5735 5.6413 12.6651 5.65599 12.7557C5.68865 12.9565 5.71662 13.1584 5.75897 13.3572C5.78554 13.4821 5.77944 13.6172 5.85742 13.7288C5.82726 13.8112 5.88195 13.8823 5.89055 13.9601C5.9182 14.2101 6.01118 14.4464 6.06978 14.6901C6.11822 14.8916 6.19151 15.0888 6.24824 15.2893C6.32449 15.5588 6.43294 15.8165 6.53029 16.0782C6.64015 16.3736 6.76797 16.6619 6.90033 16.9482C7.08191 17.3405 7.28458 17.7209 7.51148 18.0889C7.66884 18.3441 7.83151 18.5957 8.00887 18.8377C8.32796 19.2732 8.67612 19.684 9.05178 20.0716C9.12366 20.1458 9.2121 20.2047 9.27883 20.2825C9.3468 20.3619 9.43197 20.4207 9.50682 20.4907C9.65761 20.6318 9.82169 20.7595 9.98561 20.8857C10.1852 21.0393 10.3939 21.1801 10.6044 21.3189C10.8257 21.4647 11.057 21.5928 11.2843 21.7278C11.5742 21.9 11.8906 22.0174 12.1925 22.1646C12.2461 22.1907 12.3122 22.1921 12.3641 22.2202C12.5279 22.309 12.7052 22.3613 12.8803 22.4191C13.0376 22.4712 13.1918 22.5313 13.3586 22.5593C13.4686 22.5777 13.5739 22.6345 13.6855 22.6615C13.8275 22.696 13.968 22.739 14.1119 22.7623C14.3229 22.7965 14.5317 22.8426 14.7437 22.8728C14.869 22.8906 14.9989 22.9097 15.1255 22.9326C15.3214 22.9683 15.5205 22.9889 15.7202 23.0011C15.8013 23.0061 15.8912 22.9901 15.9602 23.0109C16.0804 23.047 16.1987 23.0184 16.3178 23.04C16.4587 23.0656 16.6076 23.0473 16.7531 23.0479C16.9509 23.0489 17.1491 23.0462 17.3468 23.0528C17.4221 23.0553 17.4405 23.0353 17.4405 22.9595C17.438 21.4387 17.4386 19.918 17.4386 18.397C17.4386 18.3736 17.4393 18.3502 17.4386 18.3267C17.4382 18.3031 17.4497 18.2917 17.4721 18.2974C17.5544 18.3181 17.641 18.313 17.7223 18.3316C17.8946 18.3708 18.0736 18.3727 18.2418 18.4347C18.3551 18.4764 18.4823 18.4713 18.5916 18.5297C18.6511 18.5616 18.7303 18.525 18.7766 18.5638C18.8553 18.6297 18.9543 18.6363 19.041 18.6752C19.1505 18.7244 19.2621 18.7691 19.3701 18.8238C19.572 18.9262 19.7775 19.0215 19.9753 19.1323C20.0172 19.1557 20.045 19.2063 20.0845 19.2107C20.2216 19.2257 20.2848 19.3495 20.3905 19.4107C20.4842 19.4651 20.5718 19.5457 20.6593 19.6184C20.7715 19.7117 20.886 19.8016 20.9907 19.9038C21.286 20.1919 21.559 20.4991 21.8106 20.8268C21.9783 21.0451 22.131 21.2739 22.2714 21.5084C22.3644 21.6638 22.4461 21.8294 22.5254 21.9949C22.6762 22.3098 22.8191 22.6271 22.9182 22.9618C22.9413 23.04 22.9753 23.0523 23.0451 23.0522C24.2455 23.0506 25.4461 23.0509 26.6465 23.0509C26.6648 23.0509 26.6829 23.0504 26.7012 23.0508C26.7336 23.0514 26.7412 23.0379 26.7315 23.0072C26.6697 22.812 26.617 22.6142 26.5462 22.4218C26.4564 22.1774 26.3674 21.9335 26.2598 21.6953C26.1832 21.5256 26.1229 21.3472 26.0394 21.1793C25.9343 20.9678 25.8204 20.761 25.7058 20.5543C25.6021 20.3671 25.4897 20.1839 25.3747 20.0053C25.2762 19.8525 25.172 19.6989 25.0565 19.5556C24.9131 19.3778 24.7781 19.1931 24.6328 19.0168C24.5134 18.8719 24.3885 18.7311 24.2587 18.5955C23.906 18.2267 23.5361 17.8757 23.1367 17.5576C22.9706 17.4254 22.8002 17.2987 22.6263 17.176C22.2499 16.9107 21.8564 16.6758 21.4476 16.4652C21.3925 16.4367 21.3223 16.4297 21.2799 16.3573L21.2804 16.3575Z" fill="#F9F8EC"/>
<path d="M11.5464 32C11.5318 31.9687 11.5567 31.9698 11.5736 31.9704C11.5892 31.9709 11.6076 31.9764 11.5933 32H11.5464Z" fill="#000001"/>
<path d="M20.4222 31.9999C20.4094 31.9934 20.4137 31.9868 20.4215 31.9793C20.4276 31.9734 20.4323 31.9734 20.4384 31.9793C20.4462 31.9868 20.4506 31.9934 20.4378 31.9999H20.4222Z" fill="#000001"/>
<path d="M21.2807 16.3585C21.323 16.431 21.3932 16.438 21.4483 16.4663C21.8573 16.677 22.2506 16.9118 22.627 17.1772C22.801 17.2998 22.9713 17.4266 23.1374 17.5588C23.5368 17.8769 23.9067 18.2279 24.2594 18.5967C24.3891 18.7323 24.5141 18.8731 24.6335 19.018C24.7788 19.1942 24.9138 19.3789 25.0573 19.5568C25.1729 19.7 25.277 19.8537 25.3754 20.0065C25.4904 20.1851 25.6029 20.3681 25.7065 20.5554C25.8211 20.7622 25.935 20.9689 26.0402 21.1805C26.1236 21.3483 26.1839 21.5268 26.2605 21.6965C26.368 21.9348 26.4571 22.1786 26.5469 22.423C26.6177 22.6153 26.6704 22.8133 26.7323 23.0083C26.742 23.0391 26.7345 23.0525 26.702 23.0519C26.6837 23.0516 26.6655 23.0521 26.6473 23.0521C25.4468 23.0521 24.2463 23.0516 23.0458 23.0533C22.976 23.0533 22.9421 23.0411 22.9189 22.963C22.8199 22.6283 22.6769 22.3109 22.5261 21.996C22.4469 21.8307 22.3651 21.6649 22.2722 21.5096C22.1317 21.275 21.979 21.0464 21.8113 20.828C21.5598 20.5003 21.2868 20.1931 20.9914 19.9049C20.8867 19.8029 20.7722 19.7129 20.66 19.6196C20.5725 19.5469 20.485 19.4661 20.3912 19.4119C20.2856 19.3506 20.2223 19.2269 20.0852 19.2119C20.0459 19.2075 20.0179 19.1569 19.976 19.1334C19.778 19.0226 19.5727 18.9273 19.3708 18.825C19.2628 18.7703 19.1513 18.7256 19.0417 18.6764C18.9551 18.6374 18.8561 18.6309 18.7773 18.5649C18.7311 18.5262 18.6518 18.5628 18.5923 18.5309C18.4831 18.4724 18.3559 18.4776 18.2426 18.4359C18.0743 18.3738 17.8952 18.372 17.723 18.3327C17.6417 18.3143 17.5552 18.3193 17.4728 18.2985C17.4505 18.2929 17.4389 18.3043 17.4394 18.3279C17.4398 18.3513 17.4394 18.3748 17.4394 18.3982C17.4394 19.919 17.4388 21.4397 17.4413 22.9607C17.4413 23.0364 17.4228 23.0565 17.3475 23.054C17.1498 23.0474 16.9518 23.05 16.7538 23.0491C16.6084 23.0483 16.4594 23.0666 16.3185 23.0411C16.1996 23.0196 16.0811 23.0482 15.961 23.0121C15.8919 22.9913 15.8022 23.0072 15.7209 23.0022C15.5212 22.99 15.3221 22.9693 15.1262 22.9338C14.9996 22.9108 14.8698 22.8917 14.7444 22.8739C14.5324 22.8438 14.3236 22.7977 14.1127 22.7635C13.9689 22.7402 13.8283 22.6972 13.6862 22.6627C13.5746 22.6356 13.4693 22.5789 13.3593 22.5605C13.1926 22.5325 13.0383 22.4723 12.881 22.4203C12.7061 22.3625 12.5288 22.3101 12.3648 22.2214C12.3128 22.1932 12.2469 22.1918 12.1933 22.1657C11.8912 22.0185 11.5749 21.9012 11.2851 21.729C11.0577 21.5938 10.8264 21.4657 10.6051 21.32C10.3947 21.1814 10.1859 21.0405 9.98634 20.8869C9.82242 20.7606 9.65818 20.6329 9.50754 20.4918C9.43269 20.4217 9.34769 20.3631 9.27956 20.2837C9.21283 20.2057 9.12423 20.1468 9.0525 20.0727C8.67684 19.6852 8.32869 19.2744 8.00959 18.8389C7.83223 18.5968 7.66956 18.3452 7.5122 18.0901C7.28531 17.7222 7.08263 17.3417 6.90105 16.9493C6.76854 16.663 6.64087 16.3747 6.53102 16.0794C6.43367 15.8178 6.32522 15.5601 6.24896 15.2904C6.19224 15.0899 6.11895 14.8926 6.07051 14.6913C6.01191 14.4475 5.91878 14.2113 5.89127 13.9612C5.88268 13.8834 5.82799 13.8123 5.85814 13.73C5.78017 13.6182 5.78626 13.4832 5.7597 13.3584C5.71735 13.1596 5.68938 12.9577 5.65672 12.7569C5.64203 12.6663 5.61797 12.5749 5.62078 12.4844C5.62406 12.3822 5.58031 12.29 5.58484 12.185C5.58843 12.1007 5.55109 12.0082 5.54483 11.9157C5.5378 11.8092 5.50217 11.7034 5.50374 11.5976C5.50592 11.4437 5.46795 11.295 5.46592 11.1418C5.46373 10.9672 5.43482 10.7933 5.4242 10.6186C5.41951 10.5419 5.40795 10.4625 5.43373 10.3873C5.44498 10.3546 5.42295 10.3334 5.41904 10.3064C5.39341 10.1304 5.4156 9.95336 5.40263 9.77725C5.39998 9.74147 5.4156 9.73084 5.44811 9.73381C5.46358 9.73522 5.47936 9.73396 5.49499 9.73396C6.65119 9.73396 7.80739 9.7349 8.96359 9.73193C9.0411 9.73178 9.06266 9.75459 9.05797 9.82679C9.05328 9.8982 9.04141 9.97508 9.04985 10.0402C9.06579 10.162 9.04703 10.2843 9.07079 10.4037C9.07641 10.4323 9.07829 10.4597 9.07891 10.4879C9.08282 10.6912 9.10798 10.8931 9.1211 11.0955C9.13314 11.2822 9.18252 11.4658 9.16548 11.6543C9.16283 11.6841 9.18486 11.6991 9.19236 11.7226C9.22439 11.824 9.21799 11.9301 9.23252 12.0336C9.25205 12.1734 9.28315 12.3114 9.30128 12.4509C9.3205 12.5988 9.37722 12.7399 9.37003 12.8929C9.368 12.9383 9.39691 12.9877 9.41082 13.0354C9.48973 13.3055 9.53692 13.5834 9.61381 13.8536C9.67444 14.0667 9.75476 14.2742 9.82101 14.486C9.86883 14.6386 9.93165 14.7854 9.9915 14.9329C10.0992 15.1982 10.2195 15.4582 10.3536 15.7116C10.5205 16.0272 10.6947 16.3375 10.8992 16.6316C11.0789 16.8898 11.2604 17.1464 11.4793 17.3714C11.6946 17.5925 11.899 17.828 12.1495 18.0104C12.3178 18.1329 12.4836 18.2591 12.6583 18.3741C12.863 18.5088 13.0813 18.6156 13.2974 18.7273C13.3715 18.7656 13.4543 18.7925 13.537 18.8161C13.6501 18.8484 13.7589 18.8958 13.8697 18.9364C13.8865 18.9426 13.9036 18.9504 13.9211 18.9523C13.9712 18.9575 14.0027 18.9537 14.0023 18.8828C13.9991 18.0938 14.0003 17.3047 14.0003 16.5157C14.0003 14.2866 14.0008 12.0575 13.9983 9.82835C13.9983 9.74834 14.0186 9.73209 14.0958 9.73225C15.1817 9.73506 16.2675 9.7349 17.3536 9.73225C17.4277 9.73209 17.4409 9.75428 17.4409 9.82257C17.4391 11.5204 17.4402 13.2184 17.4373 14.9162C17.4373 14.9895 17.4634 15.0076 17.5228 14.9976C17.6603 14.9745 17.8011 14.9602 17.9332 14.9188C18.2238 14.8276 18.5132 14.7307 18.7792 14.5758C18.89 14.5113 19.0155 14.4757 19.1195 14.3947C19.2291 14.3095 19.3531 14.2441 19.4688 14.1678C19.5994 14.0816 19.7233 13.9831 19.8413 13.8765C20.0038 13.7298 20.1653 13.5817 20.3239 13.431C20.462 13.2998 20.5869 13.1543 20.7172 13.0149C20.8011 12.9252 20.8805 12.8308 20.9544 12.7349C21.0278 12.6394 21.1044 12.5449 21.1741 12.4455C21.3441 12.2033 21.4982 11.9506 21.6587 11.7024C21.7307 11.591 21.7856 11.4651 21.8517 11.348C21.9782 11.1236 22.0823 10.8878 22.1829 10.6526C22.2683 10.4533 22.344 10.2473 22.4106 10.039C22.4361 9.95899 22.4534 9.87539 22.4902 9.79819C22.5152 9.74553 22.5516 9.73287 22.6069 9.73287C23.5548 9.73443 24.5027 9.73396 25.4506 9.73396C25.5964 9.73396 25.7422 9.73428 25.8881 9.73381C25.9277 9.73365 25.9366 9.7335 25.9324 9.78788C25.9227 9.91523 25.8789 10.0346 25.8655 10.1612C25.8522 10.286 25.7945 10.4057 25.7608 10.529C25.7114 10.7089 25.6484 10.8847 25.604 11.0664C25.5859 11.141 25.5322 11.2074 25.5136 11.2871C25.4806 11.4288 25.405 11.5534 25.3493 11.6859C25.249 11.9251 25.1382 12.1579 25.0163 12.3869C24.9746 12.4652 24.9163 12.5353 24.8824 12.6117C24.8402 12.7071 24.7766 12.7885 24.736 12.8829C24.6865 12.9977 24.6008 13.0902 24.5389 13.1974C24.4669 13.322 24.3786 13.4363 24.2991 13.5557C24.2294 13.6604 24.1452 13.7597 24.0655 13.8597C23.8733 14.1006 23.674 14.3353 23.4657 14.563C23.2585 14.7893 23.0418 15.0063 22.8203 15.217C22.6722 15.3579 22.5145 15.4936 22.3458 15.615C22.2134 15.7101 22.0953 15.8286 21.9581 15.918C21.8118 16.0131 21.6823 16.1324 21.5208 16.2074C21.438 16.2458 21.3752 16.3252 21.2811 16.3586L21.2807 16.3585Z" fill="#DB5228"/>
</g>
<defs>
<clipPath id="clip0_41_304">
<rect width="32" height="32" fill="white"/>
</clipPath>
</defs>
</svg>
