<svg width="266" height="160" viewBox="0 0 266 160" fill="none" xmlns="http://www.w3.org/2000/svg">
<path d="M1.5 31.9663C15 17.9663 79 -11.5337 88 7.96628C97 27.4663 71.5 47.4663 91 56.9663C106.6 64.5663 134.167 55.7996 146 50.4663" stroke="#817F0D" stroke-width="3" stroke-linecap="round"/>
<path d="M264.5 5.4607C247 -0.539297 230 -3.5393 213.5 25.4607C197 54.4607 209 81.4607 187.5 92.9607C166 104.461 116 73.9607 100.5 81.9607" stroke="#817F0D" stroke-width="3" stroke-linecap="round"/>
<path d="M31.3752 48.4998C19.8752 70.6664 4.77519 116.4 36.3752 122C75.8752 129 140 105.5 157.5 118.5C175 131.5 170.5 146.5 191.375 150.5" stroke="#817F0D" stroke-width="3" stroke-linecap="round"/>
<path d="M84.5293 73.4998L100.501 89.4998" stroke="#817F0D" stroke-width="3" stroke-linecap="round"/>
<path d="M100.473 73.4998L84.5006 89.4998" stroke="#817F0D" stroke-width="3" stroke-linecap="round"/>
<path d="M191.525 142.5L207.498 158.5" stroke="#817F0D" stroke-width="3" stroke-linecap="round"/>
<path d="M207.47 142.5L191.497 158.5" stroke="#817F0D" stroke-width="3" stroke-linecap="round"/>
<path d="M146.526 41.4998L162.499 57.4998" stroke="#817F0D" stroke-width="3" stroke-linecap="round"/>
<path d="M162.471 41.4998L146.498 57.4998" stroke="#817F0D" stroke-width="3" stroke-linecap="round"/>
</svg>
